# xmcd CD database file
#
# Track frame offsets:
#	150
#	31936
#	55143
#	79385
#	104002
#	138003
#	172256
#	198152
#	226185
#	253299
#
# Disc length: 3690 seconds
#
# Revision: 0
# Processed by: cddbd v1.5.1PL0 Copyright (c) Steve Scherf et al.
# Submitted via: CDex 1.51
#
DISCID=870e680a
DTITLE=Lo que bailamos los Cubanos - Lo que bailamos los Cubanos
DYEAR=1997
DGENRE=Salsa
TTITLE0=De igual a igual (Los Van Van)
TTITLE1=Sera que se acabo (Isaac Delgado)
TTITLE2=Somos Latinos (Adalberto Alvarez)
TTITLE3=El Domino (Tamayo y su salsa)
TTITLE4=De la parte de afuera (NG La banda)
TTITLE5=La reina de Ife (Kini Kinis(
TTITLE6=Porque la salsa esta buena (Rojitas)
TTITLE7=Que bien me siento (Elio reve y su charangon)
TTITLE8=Extraños ateos (La charanga habanera)
TTITLE9=La bola (Manolin, el medico de la salsa)
EXTD=YEAR: 1997
EXTT0=
EXTT1=
EXTT2=
EXTT3=
EXTT4=
EXTT5=
EXTT6=
EXTT7=
EXTT8=
EXTT9=
PLAYORDER=
